<svg xmlns="http://www.w3.org/2000/svg" xmlns:xlink="http://www.w3.org/1999/xlink" version="1.1" x="0px" y="0px" viewBox="0 0 64 64" style="enable-background:new 0 0 64 64;" xml:space="preserve"><title> icon</title><desc> icon for website, application, printing, document, poster design, etc.</desc><metadata><?xpacket begin="&#239;&#187;&#191;" id="W5M0MpCehiHzreSzNTczkc9d"?><x:xmpmeta xmlns:x="adobe:ns:meta/" x:xmptk="Adobe XMP Core 5.6-c137 79.159547, 2016/07/07-11:39:24        "></x:xmpmeta><?xpacket end="w"?></metadata><g><path d="M46,62H7c-1.654,0-3-1.346-3-3V10.46C5.063,11.414,6.462,12,8,12h3v-2H8c-2.206,0-4-1.794-4-4s1.794-4,4-4h38v1   c0,1.103-0.897,2-2,2H8v2h5v8c0,0.369,0.203,0.708,0.528,0.882c0.324,0.173,0.719,0.153,1.026-0.05L17,14.202l2.445,1.63   C19.613,15.944,19.806,16,20,16c0.162,0,0.324-0.039,0.472-0.118C20.797,15.708,21,15.369,21,15V7h23c1.103,0,2,0.897,2,2v1H23v2   h23v4h2v-5v-1V9c0-1.2-0.542-2.266-1.382-3C47.458,5.266,48,4.2,48,3V1c0-0.552-0.448-1-1-1H8C5.033,0,2.569,2.167,2.09,5H2v54   c0,2.757,2.243,5,5,5h40c0.552,0,1-0.448,1-1v-8h-2V62z M19,13.131l-1.445-0.963C17.387,12.056,17.193,12,17,12   s-0.387,0.056-0.555,0.168L15,13.131V7h4V13.131z"></path><path d="M35,22H10c-1.103,0-2,0.897-2,2v9c0,1.103,0.897,2,2,2h22v-2H10v-9h25V22z"></path><rect x="8" y="39" width="24" height="2"></rect><rect x="8" y="45" width="16" height="2"></rect><path d="M48,18c-7.72,0-14,6.28-14,14c0,4.578,2.246,8.875,6.007,11.496l1.143-1.642C37.925,39.608,36,35.924,36,32   c0-6.617,5.383-12,12-12s12,5.383,12,12c0,3.86-1.876,7.509-5.018,9.761l1.165,1.626C59.812,40.76,62,36.503,62,32   C62,24.28,55.72,18,48,18z"></path><path d="M53,41h-4v-6h0l0-3c0-1.654,1.346-3,3-3h3v1c0,1.654-1.346,3-3,3h-1v2h1c2.757,0,5-2.243,5-5v-2c0-0.552-0.448-1-1-1h-4   c-1.641,0-3.088,0.806-4,2.031C47.088,27.806,45.641,27,44,27h-4c-0.552,0-1,0.448-1,1v2c0,2.757,2.243,5,5,5h3v6h-4   c-0.283,0-0.552,0.12-0.741,0.329c-0.19,0.209-0.282,0.489-0.254,0.771l0.5,5l0.32,3.199C42.979,51.839,44.263,53,45.81,53h4.38   c1.547,0,2.831-1.161,2.985-2.701l0.32-3.199l0.5-5c0.028-0.281-0.064-0.561-0.254-0.771C53.552,41.12,53.283,41,53,41z M41,30v-1   h3c1.654,0,3,1.346,3,3v1h-3C42.346,33,41,31.654,41,30z M51.895,43l-0.3,3h-7.19l-0.3-3H51.895z M51.185,50.1   c-0.051,0.513-0.479,0.9-0.995,0.9h-4.38c-0.516,0-0.944-0.387-0.995-0.9l-0.21-2.1h6.79L51.185,50.1z"></path><rect x="33" y="46" width="2" height="2"></rect><rect x="33" y="50" width="2" height="2"></rect><rect x="31" y="48" width="2" height="2"></rect><rect x="35" y="48" width="2" height="2"></rect><rect x="58" y="13" width="2" height="2"></rect><rect x="58" y="17" width="2" height="2"></rect><rect x="56" y="15" width="2" height="2"></rect><rect x="60" y="15" width="2" height="2"></rect></g></svg>