<?xml version="1.0" encoding="UTF-8" standalone="no"?>
<!DOCTYPE svg PUBLIC "-//W3C//DTD SVG 1.1//EN"
 "http://www.w3.org/Graphics/SVG/1.1/DTD/svg11.dtd">
<!-- Generated by graphviz version 2.43.0 (0)
 -->
<!-- Title: Tree Pages: 1 -->
<svg width="721pt" height="311pt"
 viewBox="0.00 0.00 721.00 311.00" xmlns="http://www.w3.org/2000/svg" xmlns:xlink="http://www.w3.org/1999/xlink">
<g id="graph0" class="graph" transform="scale(1 1) rotate(0) translate(4 307)">
<title>Tree</title>
<polygon fill="white" stroke="transparent" points="-4,4 -4,-307 717,-307 717,4 -4,4"/>
<!-- 0 -->
<g id="node1" class="node">
<title>0</title>
<polygon fill="#d8ecfa" stroke="black" points="462,-303 286,-303 286,-250 462,-250 462,-303"/>
<text text-anchor="middle" x="374" y="-287.8" font-family="Helvetica,sans-Serif" font-size="14.00">exang &lt;= 0.5</text>
<text text-anchor="middle" x="374" y="-272.8" font-family="Helvetica,sans-Serif" font-size="14.00">samples = 100.0%</text>
<text text-anchor="middle" x="374" y="-257.8" font-family="Helvetica,sans-Serif" font-size="14.00">value = [0.445, 0.555]</text>
</g>
<!-- 1 -->
<g id="node2" class="node">
<title>1</title>
<polygon fill="#9fcff2" stroke="black" points="365,-214 189,-214 189,-161 365,-161 365,-214"/>
<text text-anchor="middle" x="277" y="-198.8" font-family="Helvetica,sans-Serif" font-size="14.00">thalach &lt;= 146.5</text>
<text text-anchor="middle" x="277" y="-183.8" font-family="Helvetica,sans-Serif" font-size="14.00">samples = 73.8%</text>
<text text-anchor="middle" x="277" y="-168.8" font-family="Helvetica,sans-Serif" font-size="14.00">value = [0.339, 0.661]</text>
</g>
<!-- 0&#45;&gt;1 -->
<g id="edge1" class="edge">
<title>0&#45;&gt;1</title>
<path fill="none" stroke="black" d="M345.42,-249.87C335.35,-240.83 323.89,-230.55 313.26,-221.03"/>
<polygon fill="black" stroke="black" points="315.49,-218.32 305.71,-214.25 310.82,-223.53 315.49,-218.32"/>
<text text-anchor="middle" x="307.07" y="-235.51" font-family="Helvetica,sans-Serif" font-size="14.00">True</text>
</g>
<!-- 62 -->
<g id="node9" class="node">
<title>62</title>
<polygon fill="#eca26d" stroke="black" points="559,-214 383,-214 383,-161 559,-161 559,-214"/>
<text text-anchor="middle" x="471" y="-198.8" font-family="Helvetica,sans-Serif" font-size="14.00">thalach &lt;= 151.0</text>
<text text-anchor="middle" x="471" y="-183.8" font-family="Helvetica,sans-Serif" font-size="14.00">samples = 26.2%</text>
<text text-anchor="middle" x="471" y="-168.8" font-family="Helvetica,sans-Serif" font-size="14.00">value = [0.792, 0.208]</text>
</g>
<!-- 0&#45;&gt;62 -->
<g id="edge8" class="edge">
<title>0&#45;&gt;62</title>
<path fill="none" stroke="black" d="M402.58,-249.87C412.65,-240.83 424.11,-230.55 434.74,-221.03"/>
<polygon fill="black" stroke="black" points="437.18,-223.53 442.29,-214.25 432.51,-218.32 437.18,-223.53"/>
<text text-anchor="middle" x="440.93" y="-235.51" font-family="Helvetica,sans-Serif" font-size="14.00">False</text>
</g>
<!-- 2 -->
<g id="node3" class="node">
<title>2</title>
<polygon fill="#f0b890" stroke="black" points="176,-125 0,-125 0,-72 176,-72 176,-125"/>
<text text-anchor="middle" x="88" y="-109.8" font-family="Helvetica,sans-Serif" font-size="14.00">sex &lt;= 0.5</text>
<text text-anchor="middle" x="88" y="-94.8" font-family="Helvetica,sans-Serif" font-size="14.00">samples = 18.6%</text>
<text text-anchor="middle" x="88" y="-79.8" font-family="Helvetica,sans-Serif" font-size="14.00">value = [0.696, 0.304]</text>
</g>
<!-- 1&#45;&gt;2 -->
<g id="edge2" class="edge">
<title>1&#45;&gt;2</title>
<path fill="none" stroke="black" d="M221.57,-160.98C199.94,-151.03 174.98,-139.54 152.54,-129.21"/>
<polygon fill="black" stroke="black" points="153.98,-126.02 143.43,-125.01 151.05,-132.38 153.98,-126.02"/>
</g>
<!-- 13 -->
<g id="node6" class="node">
<title>13</title>
<polygon fill="#6eb7ec" stroke="black" points="370,-125 194,-125 194,-72 370,-72 370,-125"/>
<text text-anchor="middle" x="282" y="-109.8" font-family="Helvetica,sans-Serif" font-size="14.00">thal &lt;= 2.5</text>
<text text-anchor="middle" x="282" y="-94.8" font-family="Helvetica,sans-Serif" font-size="14.00">samples = 55.2%</text>
<text text-anchor="middle" x="282" y="-79.8" font-family="Helvetica,sans-Serif" font-size="14.00">value = [0.211, 0.789]</text>
</g>
<!-- 1&#45;&gt;13 -->
<g id="edge5" class="edge">
<title>1&#45;&gt;13</title>
<path fill="none" stroke="black" d="M278.47,-160.87C278.93,-152.89 279.45,-143.93 279.94,-135.38"/>
<polygon fill="black" stroke="black" points="283.44,-135.43 280.52,-125.25 276.45,-135.03 283.44,-135.43"/>
</g>
<!-- 3 -->
<g id="node4" class="node">
<title>3</title>
<polygon fill="#c0c0c0" stroke="black" points="79,-36 25,-36 25,0 79,0 79,-36"/>
<text text-anchor="middle" x="52" y="-14.3" font-family="Helvetica,sans-Serif" font-size="14.00">(...)</text>
</g>
<!-- 2&#45;&gt;3 -->
<g id="edge3" class="edge">
<title>2&#45;&gt;3</title>
<path fill="none" stroke="black" d="M76.21,-71.8C72.34,-63.35 68.03,-53.95 64.13,-45.45"/>
<polygon fill="black" stroke="black" points="67.3,-43.96 59.95,-36.33 60.93,-46.88 67.3,-43.96"/>
</g>
<!-- 6 -->
<g id="node5" class="node">
<title>6</title>
<polygon fill="#c0c0c0" stroke="black" points="151,-36 97,-36 97,0 151,0 151,-36"/>
<text text-anchor="middle" x="124" y="-14.3" font-family="Helvetica,sans-Serif" font-size="14.00">(...)</text>
</g>
<!-- 2&#45;&gt;6 -->
<g id="edge4" class="edge">
<title>2&#45;&gt;6</title>
<path fill="none" stroke="black" d="M99.79,-71.8C103.66,-63.35 107.97,-53.95 111.87,-45.45"/>
<polygon fill="black" stroke="black" points="115.07,-46.88 116.05,-36.33 108.7,-43.96 115.07,-46.88"/>
</g>
<!-- 14 -->
<g id="node7" class="node">
<title>14</title>
<polygon fill="#c0c0c0" stroke="black" points="273,-36 219,-36 219,0 273,0 273,-36"/>
<text text-anchor="middle" x="246" y="-14.3" font-family="Helvetica,sans-Serif" font-size="14.00">(...)</text>
</g>
<!-- 13&#45;&gt;14 -->
<g id="edge6" class="edge">
<title>13&#45;&gt;14</title>
<path fill="none" stroke="black" d="M270.21,-71.8C266.34,-63.35 262.03,-53.95 258.13,-45.45"/>
<polygon fill="black" stroke="black" points="261.3,-43.96 253.95,-36.33 254.93,-46.88 261.3,-43.96"/>
</g>
<!-- 47 -->
<g id="node8" class="node">
<title>47</title>
<polygon fill="#c0c0c0" stroke="black" points="345,-36 291,-36 291,0 345,0 345,-36"/>
<text text-anchor="middle" x="318" y="-14.3" font-family="Helvetica,sans-Serif" font-size="14.00">(...)</text>
</g>
<!-- 13&#45;&gt;47 -->
<g id="edge7" class="edge">
<title>13&#45;&gt;47</title>
<path fill="none" stroke="black" d="M293.79,-71.8C297.66,-63.35 301.97,-53.95 305.87,-45.45"/>
<polygon fill="black" stroke="black" points="309.07,-46.88 310.05,-36.33 302.7,-43.96 309.07,-46.88"/>
</g>
<!-- 63 -->
<g id="node10" class="node">
<title>63</title>
<polygon fill="#e58139" stroke="black" points="537,-117.5 397,-117.5 397,-79.5 537,-79.5 537,-117.5"/>
<text text-anchor="middle" x="467" y="-102.3" font-family="Helvetica,sans-Serif" font-size="14.00">samples = 17.2%</text>
<text text-anchor="middle" x="467" y="-87.3" font-family="Helvetica,sans-Serif" font-size="14.00">value = [1.0, 0.0]</text>
</g>
<!-- 62&#45;&gt;63 -->
<g id="edge9" class="edge">
<title>62&#45;&gt;63</title>
<path fill="none" stroke="black" d="M469.82,-160.87C469.34,-150.42 468.78,-138.3 468.29,-127.61"/>
<polygon fill="black" stroke="black" points="471.78,-127.34 467.83,-117.51 464.79,-127.66 471.78,-127.34"/>
</g>
<!-- 64 -->
<g id="node11" class="node">
<title>64</title>
<polygon fill="#dbedfa" stroke="black" points="713,-125 555,-125 555,-72 713,-72 713,-125"/>
<text text-anchor="middle" x="634" y="-109.8" font-family="Helvetica,sans-Serif" font-size="14.00">thal &lt;= 2.5</text>
<text text-anchor="middle" x="634" y="-94.8" font-family="Helvetica,sans-Serif" font-size="14.00">samples = 9.0%</text>
<text text-anchor="middle" x="634" y="-79.8" font-family="Helvetica,sans-Serif" font-size="14.00">value = [0.45, 0.55]</text>
</g>
<!-- 62&#45;&gt;64 -->
<g id="edge10" class="edge">
<title>62&#45;&gt;64</title>
<path fill="none" stroke="black" d="M519.02,-160.87C537.26,-151.13 558.21,-139.95 577.19,-129.82"/>
<polygon fill="black" stroke="black" points="578.86,-132.9 586.04,-125.1 575.57,-126.72 578.86,-132.9"/>
</g>
<!-- 65 -->
<g id="node12" class="node">
<title>65</title>
<polygon fill="#c0c0c0" stroke="black" points="625,-36 571,-36 571,0 625,0 625,-36"/>
<text text-anchor="middle" x="598" y="-14.3" font-family="Helvetica,sans-Serif" font-size="14.00">(...)</text>
</g>
<!-- 64&#45;&gt;65 -->
<g id="edge11" class="edge">
<title>64&#45;&gt;65</title>
<path fill="none" stroke="black" d="M622.21,-71.8C618.34,-63.35 614.03,-53.95 610.13,-45.45"/>
<polygon fill="black" stroke="black" points="613.3,-43.96 605.95,-36.33 606.93,-46.88 613.3,-43.96"/>
</g>
<!-- 70 -->
<g id="node13" class="node">
<title>70</title>
<polygon fill="#c0c0c0" stroke="black" points="697,-36 643,-36 643,0 697,0 697,-36"/>
<text text-anchor="middle" x="670" y="-14.3" font-family="Helvetica,sans-Serif" font-size="14.00">(...)</text>
</g>
<!-- 64&#45;&gt;70 -->
<g id="edge12" class="edge">
<title>64&#45;&gt;70</title>
<path fill="none" stroke="black" d="M645.79,-71.8C649.66,-63.35 653.97,-53.95 657.87,-45.45"/>
<polygon fill="black" stroke="black" points="661.07,-46.88 662.05,-36.33 654.7,-43.96 661.07,-46.88"/>
</g>
</g>
</svg>
