<?xml version="1.0" encoding="UTF-8" standalone="no"?>
<!DOCTYPE svg PUBLIC "-//W3C//DTD SVG 1.1//EN"
 "http://www.w3.org/Graphics/SVG/1.1/DTD/svg11.dtd">
<!-- Generated by graphviz version 2.43.0 (0)
 -->
<!-- Title: Tree Pages: 1 -->
<svg width="766pt" height="311pt"
 viewBox="0.00 0.00 766.00 311.00" xmlns="http://www.w3.org/2000/svg" xmlns:xlink="http://www.w3.org/1999/xlink">
<g id="graph0" class="graph" transform="scale(1 1) rotate(0) translate(4 307)">
<title>Tree</title>
<polygon fill="white" stroke="transparent" points="-4,4 -4,-307 762,-307 762,4 -4,4"/>
<!-- 0 -->
<g id="node1" class="node">
<title>0</title>
<polygon fill="#f6fbfe" stroke="black" points="467,-303 291,-303 291,-250 467,-250 467,-303"/>
<text text-anchor="middle" x="379" y="-287.8" font-family="Helvetica,sans-Serif" font-size="14.00">age &lt;= 54.5</text>
<text text-anchor="middle" x="379" y="-272.8" font-family="Helvetica,sans-Serif" font-size="14.00">samples = 100.0%</text>
<text text-anchor="middle" x="379" y="-257.8" font-family="Helvetica,sans-Serif" font-size="14.00">value = [0.489, 0.511]</text>
</g>
<!-- 1 -->
<g id="node2" class="node">
<title>1</title>
<polygon fill="#8fc8f0" stroke="black" points="370,-214 194,-214 194,-161 370,-161 370,-214"/>
<text text-anchor="middle" x="282" y="-198.8" font-family="Helvetica,sans-Serif" font-size="14.00">cp &lt;= 0.5</text>
<text text-anchor="middle" x="282" y="-183.8" font-family="Helvetica,sans-Serif" font-size="14.00">samples = 49.0%</text>
<text text-anchor="middle" x="282" y="-168.8" font-family="Helvetica,sans-Serif" font-size="14.00">value = [0.303, 0.697]</text>
</g>
<!-- 0&#45;&gt;1 -->
<g id="edge1" class="edge">
<title>0&#45;&gt;1</title>
<path fill="none" stroke="black" d="M350.42,-249.87C340.35,-240.83 328.89,-230.55 318.26,-221.03"/>
<polygon fill="black" stroke="black" points="320.49,-218.32 310.71,-214.25 315.82,-223.53 320.49,-218.32"/>
<text text-anchor="middle" x="312.07" y="-235.51" font-family="Helvetica,sans-Serif" font-size="14.00">True</text>
</g>
<!-- 32 -->
<g id="node9" class="node">
<title>32</title>
<polygon fill="#f2c29f" stroke="black" points="564,-214 388,-214 388,-161 564,-161 564,-214"/>
<text text-anchor="middle" x="476" y="-198.8" font-family="Helvetica,sans-Serif" font-size="14.00">thalach &lt;= 145.5</text>
<text text-anchor="middle" x="476" y="-183.8" font-family="Helvetica,sans-Serif" font-size="14.00">samples = 51.0%</text>
<text text-anchor="middle" x="476" y="-168.8" font-family="Helvetica,sans-Serif" font-size="14.00">value = [0.661, 0.339]</text>
</g>
<!-- 0&#45;&gt;32 -->
<g id="edge8" class="edge">
<title>0&#45;&gt;32</title>
<path fill="none" stroke="black" d="M407.58,-249.87C417.65,-240.83 429.11,-230.55 439.74,-221.03"/>
<polygon fill="black" stroke="black" points="442.18,-223.53 447.29,-214.25 437.51,-218.32 442.18,-223.53"/>
<text text-anchor="middle" x="445.93" y="-235.51" font-family="Helvetica,sans-Serif" font-size="14.00">False</text>
</g>
<!-- 2 -->
<g id="node3" class="node">
<title>2</title>
<polygon fill="#efaf82" stroke="black" points="176,-125 0,-125 0,-72 176,-72 176,-125"/>
<text text-anchor="middle" x="88" y="-109.8" font-family="Helvetica,sans-Serif" font-size="14.00">thalach &lt;= 175.5</text>
<text text-anchor="middle" x="88" y="-94.8" font-family="Helvetica,sans-Serif" font-size="14.00">samples = 20.1%</text>
<text text-anchor="middle" x="88" y="-79.8" font-family="Helvetica,sans-Serif" font-size="14.00">value = [0.732, 0.268]</text>
</g>
<!-- 1&#45;&gt;2 -->
<g id="edge2" class="edge">
<title>1&#45;&gt;2</title>
<path fill="none" stroke="black" d="M225.1,-160.98C202.9,-151.03 177.28,-139.54 154.25,-129.21"/>
<polygon fill="black" stroke="black" points="155.45,-125.91 144.89,-125.01 152.59,-132.3 155.45,-125.91"/>
</g>
<!-- 21 -->
<g id="node6" class="node">
<title>21</title>
<polygon fill="#42a2e6" stroke="black" points="370,-125 194,-125 194,-72 370,-72 370,-125"/>
<text text-anchor="middle" x="282" y="-109.8" font-family="Helvetica,sans-Serif" font-size="14.00">thal &lt;= 2.5</text>
<text text-anchor="middle" x="282" y="-94.8" font-family="Helvetica,sans-Serif" font-size="14.00">samples = 28.9%</text>
<text text-anchor="middle" x="282" y="-79.8" font-family="Helvetica,sans-Serif" font-size="14.00">value = [0.044, 0.956]</text>
</g>
<!-- 1&#45;&gt;21 -->
<g id="edge5" class="edge">
<title>1&#45;&gt;21</title>
<path fill="none" stroke="black" d="M282,-160.87C282,-152.89 282,-143.93 282,-135.38"/>
<polygon fill="black" stroke="black" points="285.5,-135.25 282,-125.25 278.5,-135.25 285.5,-135.25"/>
</g>
<!-- 3 -->
<g id="node4" class="node">
<title>3</title>
<polygon fill="#c0c0c0" stroke="black" points="79,-36 25,-36 25,0 79,0 79,-36"/>
<text text-anchor="middle" x="52" y="-14.3" font-family="Helvetica,sans-Serif" font-size="14.00">(...)</text>
</g>
<!-- 2&#45;&gt;3 -->
<g id="edge3" class="edge">
<title>2&#45;&gt;3</title>
<path fill="none" stroke="black" d="M76.21,-71.8C72.34,-63.35 68.03,-53.95 64.13,-45.45"/>
<polygon fill="black" stroke="black" points="67.3,-43.96 59.95,-36.33 60.93,-46.88 67.3,-43.96"/>
</g>
<!-- 20 -->
<g id="node5" class="node">
<title>20</title>
<polygon fill="#c0c0c0" stroke="black" points="151,-36 97,-36 97,0 151,0 151,-36"/>
<text text-anchor="middle" x="124" y="-14.3" font-family="Helvetica,sans-Serif" font-size="14.00">(...)</text>
</g>
<!-- 2&#45;&gt;20 -->
<g id="edge4" class="edge">
<title>2&#45;&gt;20</title>
<path fill="none" stroke="black" d="M99.79,-71.8C103.66,-63.35 107.97,-53.95 111.87,-45.45"/>
<polygon fill="black" stroke="black" points="115.07,-46.88 116.05,-36.33 108.7,-43.96 115.07,-46.88"/>
</g>
<!-- 22 -->
<g id="node7" class="node">
<title>22</title>
<polygon fill="#c0c0c0" stroke="black" points="285,-36 231,-36 231,0 285,0 285,-36"/>
<text text-anchor="middle" x="258" y="-14.3" font-family="Helvetica,sans-Serif" font-size="14.00">(...)</text>
</g>
<!-- 21&#45;&gt;22 -->
<g id="edge6" class="edge">
<title>21&#45;&gt;22</title>
<path fill="none" stroke="black" d="M274.14,-71.8C271.61,-63.53 268.81,-54.35 266.25,-46"/>
<polygon fill="black" stroke="black" points="269.57,-44.87 263.3,-36.33 262.88,-46.92 269.57,-44.87"/>
</g>
<!-- 27 -->
<g id="node8" class="node">
<title>27</title>
<polygon fill="#c0c0c0" stroke="black" points="357,-36 303,-36 303,0 357,0 357,-36"/>
<text text-anchor="middle" x="330" y="-14.3" font-family="Helvetica,sans-Serif" font-size="14.00">(...)</text>
</g>
<!-- 21&#45;&gt;27 -->
<g id="edge7" class="edge">
<title>21&#45;&gt;27</title>
<path fill="none" stroke="black" d="M297.72,-71.8C302.99,-63.17 308.88,-53.54 314.16,-44.9"/>
<polygon fill="black" stroke="black" points="317.17,-46.69 319.4,-36.33 311.2,-43.04 317.17,-46.69"/>
</g>
<!-- 33 -->
<g id="node10" class="node">
<title>33</title>
<polygon fill="#eca26c" stroke="black" points="564,-125 388,-125 388,-72 564,-72 564,-125"/>
<text text-anchor="middle" x="476" y="-109.8" font-family="Helvetica,sans-Serif" font-size="14.00">trestbps &lt;= 129.0</text>
<text text-anchor="middle" x="476" y="-94.8" font-family="Helvetica,sans-Serif" font-size="14.00">samples = 24.8%</text>
<text text-anchor="middle" x="476" y="-79.8" font-family="Helvetica,sans-Serif" font-size="14.00">value = [0.794, 0.206]</text>
</g>
<!-- 32&#45;&gt;33 -->
<g id="edge9" class="edge">
<title>32&#45;&gt;33</title>
<path fill="none" stroke="black" d="M476,-160.87C476,-152.89 476,-143.93 476,-135.38"/>
<polygon fill="black" stroke="black" points="479.5,-135.25 476,-125.25 472.5,-135.25 479.5,-135.25"/>
</g>
<!-- 52 -->
<g id="node13" class="node">
<title>52</title>
<polygon fill="#fefaf8" stroke="black" points="758,-125 582,-125 582,-72 758,-72 758,-125"/>
<text text-anchor="middle" x="670" y="-109.8" font-family="Helvetica,sans-Serif" font-size="14.00">ca &lt;= 0.5</text>
<text text-anchor="middle" x="670" y="-94.8" font-family="Helvetica,sans-Serif" font-size="14.00">samples = 26.2%</text>
<text text-anchor="middle" x="670" y="-79.8" font-family="Helvetica,sans-Serif" font-size="14.00">value = [0.509, 0.491]</text>
</g>
<!-- 32&#45;&gt;52 -->
<g id="edge12" class="edge">
<title>32&#45;&gt;52</title>
<path fill="none" stroke="black" d="M532.9,-160.98C555.1,-151.03 580.72,-139.54 603.75,-129.21"/>
<polygon fill="black" stroke="black" points="605.41,-132.3 613.11,-125.01 602.55,-125.91 605.41,-132.3"/>
</g>
<!-- 34 -->
<g id="node11" class="node">
<title>34</title>
<polygon fill="#c0c0c0" stroke="black" points="454,-36 400,-36 400,0 454,0 454,-36"/>
<text text-anchor="middle" x="427" y="-14.3" font-family="Helvetica,sans-Serif" font-size="14.00">(...)</text>
</g>
<!-- 33&#45;&gt;34 -->
<g id="edge10" class="edge">
<title>33&#45;&gt;34</title>
<path fill="none" stroke="black" d="M459.96,-71.8C454.57,-63.17 448.56,-53.54 443.17,-44.9"/>
<polygon fill="black" stroke="black" points="446.08,-42.96 437.82,-36.33 440.14,-46.67 446.08,-42.96"/>
</g>
<!-- 41 -->
<g id="node12" class="node">
<title>41</title>
<polygon fill="#c0c0c0" stroke="black" points="526,-36 472,-36 472,0 526,0 526,-36"/>
<text text-anchor="middle" x="499" y="-14.3" font-family="Helvetica,sans-Serif" font-size="14.00">(...)</text>
</g>
<!-- 33&#45;&gt;41 -->
<g id="edge11" class="edge">
<title>33&#45;&gt;41</title>
<path fill="none" stroke="black" d="M483.53,-71.8C485.95,-63.53 488.64,-54.35 491.09,-46"/>
<polygon fill="black" stroke="black" points="494.47,-46.91 493.92,-36.33 487.75,-44.94 494.47,-46.91"/>
</g>
<!-- 53 -->
<g id="node14" class="node">
<title>53</title>
<polygon fill="#c0c0c0" stroke="black" points="661,-36 607,-36 607,0 661,0 661,-36"/>
<text text-anchor="middle" x="634" y="-14.3" font-family="Helvetica,sans-Serif" font-size="14.00">(...)</text>
</g>
<!-- 52&#45;&gt;53 -->
<g id="edge13" class="edge">
<title>52&#45;&gt;53</title>
<path fill="none" stroke="black" d="M658.21,-71.8C654.34,-63.35 650.03,-53.95 646.13,-45.45"/>
<polygon fill="black" stroke="black" points="649.3,-43.96 641.95,-36.33 642.93,-46.88 649.3,-43.96"/>
</g>
<!-- 78 -->
<g id="node15" class="node">
<title>78</title>
<polygon fill="#c0c0c0" stroke="black" points="733,-36 679,-36 679,0 733,0 733,-36"/>
<text text-anchor="middle" x="706" y="-14.3" font-family="Helvetica,sans-Serif" font-size="14.00">(...)</text>
</g>
<!-- 52&#45;&gt;78 -->
<g id="edge14" class="edge">
<title>52&#45;&gt;78</title>
<path fill="none" stroke="black" d="M681.79,-71.8C685.66,-63.35 689.97,-53.95 693.87,-45.45"/>
<polygon fill="black" stroke="black" points="697.07,-46.88 698.05,-36.33 690.7,-43.96 697.07,-46.88"/>
</g>
</g>
</svg>
