<?xml version="1.0" encoding="UTF-8" standalone="no"?>
<!DOCTYPE svg PUBLIC "-//W3C//DTD SVG 1.1//EN"
 "http://www.w3.org/Graphics/SVG/1.1/DTD/svg11.dtd">
<!-- Generated by graphviz version 2.43.0 (0)
 -->
<!-- Title: Tree Pages: 1 -->
<svg width="740pt" height="311pt"
 viewBox="0.00 0.00 740.00 311.00" xmlns="http://www.w3.org/2000/svg" xmlns:xlink="http://www.w3.org/1999/xlink">
<g id="graph0" class="graph" transform="scale(1 1) rotate(0) translate(4 307)">
<title>Tree</title>
<polygon fill="white" stroke="transparent" points="-4,4 -4,-307 736,-307 736,4 -4,4"/>
<!-- 0 -->
<g id="node1" class="node">
<title>0</title>
<polygon fill="#d8ecfa" stroke="black" points="445,-303 269,-303 269,-250 445,-250 445,-303"/>
<text text-anchor="middle" x="357" y="-287.8" font-family="Helvetica,sans-Serif" font-size="14.00">thal &lt;= 2.5</text>
<text text-anchor="middle" x="357" y="-272.8" font-family="Helvetica,sans-Serif" font-size="14.00">samples = 100.0%</text>
<text text-anchor="middle" x="357" y="-257.8" font-family="Helvetica,sans-Serif" font-size="14.00">value = [0.445, 0.555]</text>
</g>
<!-- 1 -->
<g id="node2" class="node">
<title>1</title>
<polygon fill="#73baed" stroke="black" points="348,-214 172,-214 172,-161 348,-161 348,-214"/>
<text text-anchor="middle" x="260" y="-198.8" font-family="Helvetica,sans-Serif" font-size="14.00">exang &lt;= 0.5</text>
<text text-anchor="middle" x="260" y="-183.8" font-family="Helvetica,sans-Serif" font-size="14.00">samples = 57.2%</text>
<text text-anchor="middle" x="260" y="-168.8" font-family="Helvetica,sans-Serif" font-size="14.00">value = [0.227, 0.773]</text>
</g>
<!-- 0&#45;&gt;1 -->
<g id="edge1" class="edge">
<title>0&#45;&gt;1</title>
<path fill="none" stroke="black" d="M328.42,-249.87C318.35,-240.83 306.89,-230.55 296.26,-221.03"/>
<polygon fill="black" stroke="black" points="298.49,-218.32 288.71,-214.25 293.82,-223.53 298.49,-218.32"/>
<text text-anchor="middle" x="290.07" y="-235.51" font-family="Helvetica,sans-Serif" font-size="14.00">True</text>
</g>
<!-- 48 -->
<g id="node9" class="node">
<title>48</title>
<polygon fill="#eeac7c" stroke="black" points="542,-214 366,-214 366,-161 542,-161 542,-214"/>
<text text-anchor="middle" x="454" y="-198.8" font-family="Helvetica,sans-Serif" font-size="14.00">cp &lt;= 0.5</text>
<text text-anchor="middle" x="454" y="-183.8" font-family="Helvetica,sans-Serif" font-size="14.00">samples = 42.8%</text>
<text text-anchor="middle" x="454" y="-168.8" font-family="Helvetica,sans-Serif" font-size="14.00">value = [0.747, 0.253]</text>
</g>
<!-- 0&#45;&gt;48 -->
<g id="edge8" class="edge">
<title>0&#45;&gt;48</title>
<path fill="none" stroke="black" d="M385.58,-249.87C395.65,-240.83 407.11,-230.55 417.74,-221.03"/>
<polygon fill="black" stroke="black" points="420.18,-223.53 425.29,-214.25 415.51,-218.32 420.18,-223.53"/>
<text text-anchor="middle" x="423.93" y="-235.51" font-family="Helvetica,sans-Serif" font-size="14.00">False</text>
</g>
<!-- 2 -->
<g id="node3" class="node">
<title>2</title>
<polygon fill="#5baee9" stroke="black" points="176,-125 0,-125 0,-72 176,-72 176,-125"/>
<text text-anchor="middle" x="88" y="-109.8" font-family="Helvetica,sans-Serif" font-size="14.00">cp &lt;= 2.5</text>
<text text-anchor="middle" x="88" y="-94.8" font-family="Helvetica,sans-Serif" font-size="14.00">samples = 43.5%</text>
<text text-anchor="middle" x="88" y="-79.8" font-family="Helvetica,sans-Serif" font-size="14.00">value = [0.147, 0.853]</text>
</g>
<!-- 1&#45;&gt;2 -->
<g id="edge2" class="edge">
<title>1&#45;&gt;2</title>
<path fill="none" stroke="black" d="M209.32,-160.87C189.99,-151.09 167.77,-139.85 147.68,-129.68"/>
<polygon fill="black" stroke="black" points="149.11,-126.49 138.61,-125.1 145.95,-132.74 149.11,-126.49"/>
</g>
<!-- 37 -->
<g id="node6" class="node">
<title>37</title>
<polygon fill="#ffffff" stroke="black" points="335.5,-125 194.5,-125 194.5,-72 335.5,-72 335.5,-125"/>
<text text-anchor="middle" x="265" y="-109.8" font-family="Helvetica,sans-Serif" font-size="14.00">thalach &lt;= 148.0</text>
<text text-anchor="middle" x="265" y="-94.8" font-family="Helvetica,sans-Serif" font-size="14.00">samples = 13.8%</text>
<text text-anchor="middle" x="265" y="-79.8" font-family="Helvetica,sans-Serif" font-size="14.00">value = [0.5, 0.5]</text>
</g>
<!-- 1&#45;&gt;37 -->
<g id="edge5" class="edge">
<title>1&#45;&gt;37</title>
<path fill="none" stroke="black" d="M261.47,-160.87C261.93,-152.89 262.45,-143.93 262.94,-135.38"/>
<polygon fill="black" stroke="black" points="266.44,-135.43 263.52,-125.25 259.45,-135.03 266.44,-135.43"/>
</g>
<!-- 3 -->
<g id="node4" class="node">
<title>3</title>
<polygon fill="#c0c0c0" stroke="black" points="79,-36 25,-36 25,0 79,0 79,-36"/>
<text text-anchor="middle" x="52" y="-14.3" font-family="Helvetica,sans-Serif" font-size="14.00">(...)</text>
</g>
<!-- 2&#45;&gt;3 -->
<g id="edge3" class="edge">
<title>2&#45;&gt;3</title>
<path fill="none" stroke="black" d="M76.21,-71.8C72.34,-63.35 68.03,-53.95 64.13,-45.45"/>
<polygon fill="black" stroke="black" points="67.3,-43.96 59.95,-36.33 60.93,-46.88 67.3,-43.96"/>
</g>
<!-- 30 -->
<g id="node5" class="node">
<title>30</title>
<polygon fill="#c0c0c0" stroke="black" points="151,-36 97,-36 97,0 151,0 151,-36"/>
<text text-anchor="middle" x="124" y="-14.3" font-family="Helvetica,sans-Serif" font-size="14.00">(...)</text>
</g>
<!-- 2&#45;&gt;30 -->
<g id="edge4" class="edge">
<title>2&#45;&gt;30</title>
<path fill="none" stroke="black" d="M99.79,-71.8C103.66,-63.35 107.97,-53.95 111.87,-45.45"/>
<polygon fill="black" stroke="black" points="115.07,-46.88 116.05,-36.33 108.7,-43.96 115.07,-46.88"/>
</g>
<!-- 38 -->
<g id="node7" class="node">
<title>38</title>
<polygon fill="#c0c0c0" stroke="black" points="258,-36 204,-36 204,0 258,0 258,-36"/>
<text text-anchor="middle" x="231" y="-14.3" font-family="Helvetica,sans-Serif" font-size="14.00">(...)</text>
</g>
<!-- 37&#45;&gt;38 -->
<g id="edge6" class="edge">
<title>37&#45;&gt;38</title>
<path fill="none" stroke="black" d="M253.87,-71.8C250.25,-63.44 246.22,-54.15 242.57,-45.72"/>
<polygon fill="black" stroke="black" points="245.69,-44.12 238.51,-36.33 239.27,-46.9 245.69,-44.12"/>
</g>
<!-- 45 -->
<g id="node8" class="node">
<title>45</title>
<polygon fill="#c0c0c0" stroke="black" points="330,-36 276,-36 276,0 330,0 330,-36"/>
<text text-anchor="middle" x="303" y="-14.3" font-family="Helvetica,sans-Serif" font-size="14.00">(...)</text>
</g>
<!-- 37&#45;&gt;45 -->
<g id="edge7" class="edge">
<title>37&#45;&gt;45</title>
<path fill="none" stroke="black" d="M277.44,-71.8C281.53,-63.35 286.08,-53.95 290.2,-45.45"/>
<polygon fill="black" stroke="black" points="293.4,-46.86 294.61,-36.33 287.1,-43.81 293.4,-46.86"/>
</g>
<!-- 49 -->
<g id="node10" class="node">
<title>49</title>
<polygon fill="#e99558" stroke="black" points="538,-125 362,-125 362,-72 538,-72 538,-125"/>
<text text-anchor="middle" x="450" y="-109.8" font-family="Helvetica,sans-Serif" font-size="14.00">slope &lt;= 1.5</text>
<text text-anchor="middle" x="450" y="-94.8" font-family="Helvetica,sans-Serif" font-size="14.00">samples = 27.5%</text>
<text text-anchor="middle" x="450" y="-79.8" font-family="Helvetica,sans-Serif" font-size="14.00">value = [0.864, 0.136]</text>
</g>
<!-- 48&#45;&gt;49 -->
<g id="edge9" class="edge">
<title>48&#45;&gt;49</title>
<path fill="none" stroke="black" d="M452.82,-160.87C452.45,-152.89 452.04,-143.93 451.65,-135.38"/>
<polygon fill="black" stroke="black" points="455.14,-135.08 451.18,-125.25 448.15,-135.4 455.14,-135.08"/>
</g>
<!-- 72 -->
<g id="node13" class="node">
<title>72</title>
<polygon fill="#fae6d7" stroke="black" points="732,-125 556,-125 556,-72 732,-72 732,-125"/>
<text text-anchor="middle" x="644" y="-109.8" font-family="Helvetica,sans-Serif" font-size="14.00">oldpeak &lt;= 0.55</text>
<text text-anchor="middle" x="644" y="-94.8" font-family="Helvetica,sans-Serif" font-size="14.00">samples = 15.2%</text>
<text text-anchor="middle" x="644" y="-79.8" font-family="Helvetica,sans-Serif" font-size="14.00">value = [0.556, 0.444]</text>
</g>
<!-- 48&#45;&gt;72 -->
<g id="edge12" class="edge">
<title>48&#45;&gt;72</title>
<path fill="none" stroke="black" d="M509.72,-160.98C531.47,-151.03 556.56,-139.54 579.11,-129.21"/>
<polygon fill="black" stroke="black" points="580.64,-132.36 588.28,-125.01 577.73,-126 580.64,-132.36"/>
</g>
<!-- 50 -->
<g id="node11" class="node">
<title>50</title>
<polygon fill="#c0c0c0" stroke="black" points="455,-36 401,-36 401,0 455,0 455,-36"/>
<text text-anchor="middle" x="428" y="-14.3" font-family="Helvetica,sans-Serif" font-size="14.00">(...)</text>
</g>
<!-- 49&#45;&gt;50 -->
<g id="edge10" class="edge">
<title>49&#45;&gt;50</title>
<path fill="none" stroke="black" d="M442.8,-71.8C440.48,-63.53 437.91,-54.35 435.57,-46"/>
<polygon fill="black" stroke="black" points="438.93,-45.01 432.86,-36.33 432.19,-46.9 438.93,-45.01"/>
</g>
<!-- 57 -->
<g id="node12" class="node">
<title>57</title>
<polygon fill="#c0c0c0" stroke="black" points="527,-36 473,-36 473,0 527,0 527,-36"/>
<text text-anchor="middle" x="500" y="-14.3" font-family="Helvetica,sans-Serif" font-size="14.00">(...)</text>
</g>
<!-- 49&#45;&gt;57 -->
<g id="edge11" class="edge">
<title>49&#45;&gt;57</title>
<path fill="none" stroke="black" d="M466.37,-71.8C471.87,-63.17 478,-53.54 483.5,-44.9"/>
<polygon fill="black" stroke="black" points="486.54,-46.65 488.96,-36.33 480.64,-42.88 486.54,-46.65"/>
</g>
<!-- 73 -->
<g id="node14" class="node">
<title>73</title>
<polygon fill="#c0c0c0" stroke="black" points="621,-36 567,-36 567,0 621,0 621,-36"/>
<text text-anchor="middle" x="594" y="-14.3" font-family="Helvetica,sans-Serif" font-size="14.00">(...)</text>
</g>
<!-- 72&#45;&gt;73 -->
<g id="edge13" class="edge">
<title>72&#45;&gt;73</title>
<path fill="none" stroke="black" d="M627.63,-71.8C622.13,-63.17 616,-53.54 610.5,-44.9"/>
<polygon fill="black" stroke="black" points="613.36,-42.88 605.04,-36.33 607.46,-46.65 613.36,-42.88"/>
</g>
<!-- 78 -->
<g id="node15" class="node">
<title>78</title>
<polygon fill="#c0c0c0" stroke="black" points="693,-36 639,-36 639,0 693,0 693,-36"/>
<text text-anchor="middle" x="666" y="-14.3" font-family="Helvetica,sans-Serif" font-size="14.00">(...)</text>
</g>
<!-- 72&#45;&gt;78 -->
<g id="edge14" class="edge">
<title>72&#45;&gt;78</title>
<path fill="none" stroke="black" d="M651.2,-71.8C653.52,-63.53 656.09,-54.35 658.43,-46"/>
<polygon fill="black" stroke="black" points="661.81,-46.9 661.14,-36.33 655.07,-45.01 661.81,-46.9"/>
</g>
</g>
</svg>
